<svg width="229" height="166" viewBox="0 0 229 166" fill="none" xmlns="http://www.w3.org/2000/svg">
<rect width="228.221" height="165.634" rx="20" fill="#005344"/>
<rect x="12.0117" y="17.0692" width="203.566" height="135.921" rx="15" fill="#FF9211"/>
<rect x="12.0117" y="35.4027" width="203.566" height="117.588" rx="15" fill="white"/>
<rect y="53.7363" width="228.221" height="111.898" rx="20" fill="#005344"/>
<path d="M143.755 138.016V137.499H146.008L149.698 148.35C149.748 148.499 149.797 148.548 149.946 148.548C150.095 148.548 150.144 148.499 150.194 148.35L153.885 137.499H156.137V138.016L151.824 150.405H148.057L143.744 138.016H143.755Z" fill="white"/>
<path d="M169.914 146.317C169.539 148.273 167.859 150.779 163.767 150.779C159.674 150.779 157.223 148.179 157.223 143.965C157.223 139.752 159.751 137.152 163.717 137.152C167.683 137.152 169.864 139.752 169.864 143.348V144.588H159.442C159.591 147.485 161.376 148.851 163.767 148.851C166.157 148.851 167.226 147.788 167.584 146.323H169.914V146.317ZM159.503 142.726H167.633C167.534 140.346 166.074 139.085 163.717 139.085C161.585 139.085 159.878 140.297 159.503 142.726Z" fill="white"/>
<path d="M174.667 150.807C174.926 152.415 176.276 153.484 178.655 153.484C181.035 153.484 182.891 151.897 182.891 149.149V148.256C182.891 148.157 182.842 148.108 182.743 148.108C182.643 148.108 182.594 148.135 182.522 148.229C181.531 149.518 180.071 150.013 178.308 150.013C175.064 150.013 172.09 147.783 172.09 143.569C172.09 139.355 175.064 137.124 178.308 137.124C181.553 137.124 181.481 137.669 182.544 138.931C182.721 139.157 182.82 139.201 182.941 139.201C183.062 139.201 183.117 139.124 183.161 138.975L183.629 137.488H185.117V149.011C185.117 153.098 182.688 155.456 178.622 155.456C174.557 155.456 172.442 153.522 172.178 150.796H174.656L174.667 150.807ZM178.683 148.031C181.035 148.031 183.018 146.422 183.018 143.569C183.018 140.715 181.035 139.107 178.683 139.107C176.331 139.107 174.348 140.715 174.348 143.569C174.348 146.422 176.331 148.031 178.683 148.031Z" fill="white"/>
<path d="M192.052 142.875L196.761 142.676V141.982C196.761 140.148 195.819 139.085 193.539 139.085C191.258 139.085 190.344 140.148 190.294 141.487H187.992C188.091 139.035 189.826 137.152 193.544 137.152C197.262 137.152 198.92 139.035 198.92 142.109V150.41H196.789V149.05C196.789 148.95 196.739 148.901 196.64 148.901C196.541 148.901 196.491 148.928 196.392 149.05C195.478 150.278 194.112 150.785 192.426 150.785C189.204 150.785 187.348 149.099 187.348 146.62C187.348 144.39 188.835 143.012 192.057 142.88L192.052 142.875ZM192.674 148.846C195.153 148.846 196.761 147.436 196.761 144.709V144.56L192.052 144.759C190.317 144.836 189.573 145.502 189.573 146.615C189.573 147.728 190.686 148.846 192.669 148.846H192.674Z" fill="white"/>
<g opacity="0.5">
<path d="M203.36 138.865H205.91V144.957H203.36V146.323H209.948V144.957H207.398V138.865H209.948V137.499H203.36V138.865Z" fill="white"/>
<path d="M218.453 137.499H211.441V138.865H214.2V146.323H215.688V138.865H218.453V137.499Z" fill="white"/>
</g>
</svg>
