<svg width="359" height="200" viewBox="0 0 359 199" fill="none" xmlns="http://www.w3.org/2000/svg">
<path d="M0 15C0 6.71573 6.71573 0 15 0H344C352.284 0 359 6.71573 359 15V184C359 192.284 352.284 199 344 199H15C6.71573 199 0 192.284 0 184V15Z" fill="#363636"/>
<path fill-rule="evenodd" clip-rule="evenodd" d="M293.862 198.5C297.524 185.212 301.608 172.058 306.233 159.069C307.075 156.706 307.906 155.126 310.663 155.764C310.782 155.792 310.913 155.762 311.046 155.733C311.12 155.716 311.194 155.699 311.266 155.692C313.107 155.516 314.949 155.343 316.79 155.171C321.127 154.764 325.464 154.358 329.796 153.899C331.859 153.68 333.913 153.366 335.967 153.052C336.897 152.91 337.827 152.767 338.757 152.634L338.73 152.485L308.245 153.775C313.513 139.751 319.212 126.56 325.518 113.504C335.87 122.59 346.537 131.033 358.29 138.501C358.221 138.323 358.175 138.186 358.14 138.08C358.084 137.91 358.053 137.819 357.992 137.762C357.656 137.45 357.301 137.157 356.936 136.879C346.551 128.964 336.857 120.241 327.624 110.985C327.362 110.722 327.295 109.962 327.469 109.598C328.663 107.102 329.881 104.613 331.21 102.189C333.014 98.8985 334.803 95.5995 336.592 92.3004C341.341 83.5451 346.09 74.7894 351.107 66.1955C353.669 61.8081 356.317 57.4731 359 53.1586V39.5221C358.371 40.4836 357.795 41.4843 357.217 42.4866C356.968 42.9192 356.718 43.3521 356.464 43.7823C354.091 47.8035 351.704 51.8169 349.317 55.8302C344.068 64.6569 338.818 73.4835 333.71 82.3934C330.921 87.2573 328.371 92.2618 325.82 97.2662C324.675 99.5134 323.53 101.761 322.363 103.995C322.261 104.19 322.164 104.387 322.022 104.672C321.94 104.838 321.843 105.033 321.723 105.275L298.508 79.2119C299.271 78.7653 300.005 78.3335 300.721 77.9128C302.213 77.0353 303.623 76.2062 305.042 75.3932C316.786 68.6644 328.157 61.3317 339.19 53.4717C343.829 50.167 348.398 46.7613 352.967 43.3557C354.976 41.8582 356.985 40.3607 359 38.8719V29.8333C348.509 38.0564 337.822 45.9988 326.752 53.4251C316.132 60.5498 305.25 67.2108 294.088 73.4582C294.032 73.4068 293.976 73.3598 293.922 73.3145C293.812 73.2219 293.709 73.136 293.628 73.0325C291.376 70.1438 289.108 67.2677 286.84 64.3916C281.486 57.6037 276.132 50.8157 270.996 43.8621C266.773 38.1446 262.809 32.2303 258.845 26.3161C257.185 23.8391 255.525 21.3622 253.846 18.8998C252.89 17.4989 251.294 16.7443 249.789 17.0787C248.115 17.4505 246.905 18.6969 246.767 20.5097C246.613 22.5348 246.437 24.56 246.262 26.5855C245.79 32.0168 245.319 37.4496 245.269 42.8855C245.189 51.6533 245.646 60.4392 246.203 69.1954C246.473 73.4283 247.026 77.643 247.579 81.8572C247.804 83.5718 248.029 85.2862 248.234 87.0018C248.448 88.7847 248.689 90.5643 248.931 92.3611C249.042 93.1818 249.153 94.0061 249.263 94.8359C248.67 95.0711 248.086 95.3091 247.508 95.545C246.273 96.0492 245.061 96.5436 243.829 96.9803C233.143 100.768 222.457 104.554 211.751 108.281C209.531 109.054 207.291 109.765 205.051 110.476C203.347 111.017 201.642 111.558 199.946 112.126C197.836 112.834 196.226 114.218 196.021 116.559C195.826 118.791 197.002 120.471 198.868 121.636C198.959 121.693 199.05 121.75 199.142 121.807C199.482 122.02 199.823 122.233 200.165 122.442L200.837 122.851C211.241 129.183 221.644 135.516 232.826 140.392C241.724 144.271 250.804 147.635 260.168 150.171C261.104 150.424 261.478 150.851 261.792 151.824C264.888 161.431 268.035 171.021 271.2 180.665C272.115 183.453 273.032 186.245 273.949 189.043C274.355 190.134 274.755 191.217 275.153 192.295C275.924 194.384 276.687 196.451 277.473 198.5H285.1C279.132 183.618 273.914 168.334 269.303 152.538C278.256 154.271 287.076 155.737 296.047 155.844C297.446 155.869 298.559 155.869 299.628 155.869L286.331 198.5H293.862ZM319.986 108.867L317.436 114.072C315.588 118.349 313.732 122.567 311.887 126.76C309.88 131.322 307.885 135.854 305.927 140.403C304.714 143.223 303.621 146.098 302.502 149.042C301.987 150.398 301.467 151.768 300.926 153.155C299.858 153.036 298.782 152.938 297.703 152.841C295.313 152.625 292.91 152.407 290.551 151.952C285.771 151.03 281.014 149.984 276.257 148.938C273.946 148.429 271.634 147.921 269.319 147.427C268.258 147.2 267.57 146.752 267.298 145.567C266.154 140.566 264.994 135.57 263.834 130.573C262.317 124.037 260.8 117.501 259.317 110.956C258.723 108.337 258.245 105.691 257.777 103.098C257.566 101.929 257.357 100.77 257.14 99.6297L293.364 82.3473L319.986 108.867ZM252.797 30.4354C261.278 42.7951 269.778 54.8517 279.291 66.125C282.375 69.6954 285.311 73.1029 288.517 76.823L256.102 92.3134C252.898 76.6075 251.017 41.4947 252.797 30.4354ZM206.009 117.789L233.349 108.508C239.134 106.305 244.717 104.24 250.181 102.219L259.413 144.355C240.743 137.524 223.311 128.014 206.009 117.789Z" fill="#1F1F1F"/>
</svg>
