<svg width="369" height="289" viewBox="0 0 369 289" fill="none" xmlns="http://www.w3.org/2000/svg">
<rect x="11" y="31" width="346" height="226" rx="15" fill="#DB5A34"/>
<rect x="16" y="49" width="335" height="158" rx="15" fill="#A4A4A4"/>
<rect x="16" y="75" width="335" height="175" rx="15" fill="#636363"/>
<path d="M67.2895 136.233C84.1169 136.233 97.7582 122.482 97.7582 105.521C97.7582 105.347 97.7567 105.173 97.7539 105L342 105C350.284 105 357 111.716 357 120V242C357 250.284 350.284 257 342 257H26C17.7157 257 11 250.284 11 242V120C11 111.716 17.7157 105 26 105H36.8251C36.8223 105.173 36.8209 105.347 36.8209 105.521C36.8209 122.482 50.4621 136.233 67.2895 136.233Z" fill="#454545"/>
<path d="M271.112 232.695C268.378 224.376 265.652 216.139 262.984 207.883C262.775 207.234 262.525 206.95 261.899 206.781C255.639 205.09 249.569 202.848 243.62 200.261C235.983 196.941 228.89 192.607 221.785 188.294C221.494 188.118 221.206 187.937 220.917 187.757C219.67 186.981 218.884 185.861 219.014 184.373C219.151 182.812 220.227 181.889 221.638 181.418C224.262 180.541 226.917 179.761 229.53 178.854C236.687 176.369 243.832 173.845 250.975 171.32C252.184 170.893 253.365 170.382 254.608 169.891C254.375 168.126 254.129 166.399 253.921 164.668C253.445 160.713 252.816 156.767 252.563 152.797C252.19 146.959 251.885 141.102 251.938 135.257C251.984 130.282 252.561 125.31 252.94 120.34C253.032 119.131 253.841 118.3 254.96 118.052C255.966 117.83 257.033 118.333 257.672 119.267C261.475 124.828 265.132 130.5 269.138 135.908C274.026 142.508 279.21 148.884 284.268 155.355C284.349 155.458 284.462 155.535 284.576 155.639C292.038 151.474 299.313 147.033 306.413 142.283C314.976 136.555 323.197 130.365 331.268 123.958C332.258 123.172 333.433 122.519 334.625 122.122C336.587 121.47 338.46 123.333 337.899 125.352C337.578 126.509 337.031 127.641 336.399 128.666C331.843 136.051 327.079 143.31 322.695 150.797C318.077 158.685 313.799 166.778 309.393 174.793C308.505 176.409 307.69 178.068 306.892 179.732C306.776 179.975 306.821 180.482 306.996 180.657C313.169 186.827 319.649 192.643 326.592 197.919C326.836 198.105 327.074 198.3 327.298 198.508C327.365 198.57 327.377 198.692 327.498 199.001C319.64 194.022 312.508 188.393 305.588 182.336C301.372 191.04 297.562 199.834 294.04 209.183C301.009 208.889 307.715 208.606 314.421 208.323C314.427 208.356 314.433 208.39 314.439 208.423C312.442 208.708 310.452 209.054 308.448 209.266C304.322 209.702 300.19 210.066 296.06 210.461C295.924 210.474 295.781 210.538 295.656 210.51C293.814 210.084 293.258 211.137 292.695 212.713C288.969 223.15 285.767 233.746 282.952 244.467C282.806 245.023 282.603 245.58 282.327 246.08C280.963 248.544 277.963 248.682 276.578 246.23C275.564 244.434 274.836 242.465 274.069 240.537C273.046 237.967 272.109 235.363 271.112 232.695ZM328.059 132.517C323.618 135.788 319.222 139.122 314.728 142.314C307.352 147.554 299.75 152.443 291.899 156.929C290.496 157.731 289.105 158.556 287.53 159.475C292.731 165.297 297.848 171.025 303.05 176.85C303.271 176.41 303.371 176.202 303.479 175.997C305.996 171.19 308.363 166.294 311.064 161.596C316.032 152.955 321.2 144.432 326.277 135.855C326.934 134.744 327.548 133.606 328.282 132.557C328.285 132.493 328.289 132.428 328.292 132.364C328.262 132.412 328.231 132.46 328.059 132.517ZM300.185 182.714C300.767 181.529 301.35 180.343 301.889 179.244C295.892 173.287 289.948 167.382 284.091 161.565C276.078 165.377 268.015 169.213 259.874 173.086C260.341 175.532 260.754 178.104 261.33 180.638C263.079 188.336 264.9 196.017 266.666 203.711C266.847 204.501 267.307 204.8 268.017 204.951C272.748 205.958 277.462 207.054 282.211 207.968C284.499 208.408 286.851 208.515 289.147 208.77C290.294 205.837 291.306 203.014 292.491 200.268C295.003 194.448 297.605 188.668 300.185 182.714ZM274.683 150.75C268.323 143.234 262.641 135.197 256.971 126.957C255.781 134.33 257.038 157.738 259.181 168.209C266.415 164.761 273.591 161.342 280.852 157.882C278.708 155.402 276.745 153.13 274.683 150.75ZM243.97 179.005C237.935 181.048 231.901 183.091 225.691 185.192C237.258 192.009 248.912 198.35 261.394 202.903C259.317 193.449 257.263 184.102 255.222 174.813C251.569 176.16 247.837 177.537 243.97 179.005ZM285.886 210.563C279.888 210.492 273.991 209.514 268.006 208.359C271.207 219.296 274.847 229.864 279.031 240.147C282.109 230.306 285.179 220.493 288.28 210.579C287.565 210.579 286.82 210.579 285.886 210.563Z" fill="white"/>
</svg>
