<svg width="51" height="45" viewBox="0 0 51 45" fill="none" xmlns="http://www.w3.org/2000/svg">
<path d="M13.6638 21.0419C19.9736 21.0419 25.0816 13.6704 25.0816 4.57626" stroke="black" stroke-miterlimit="10"/>
<path d="M25.0816 37.4975C25.0816 28.4034 19.9736 21.0419 13.6638 21.0419" stroke="black" stroke-miterlimit="10"/>
<path d="M25.0818 4.57626C25.0818 13.6704 30.1997 21.0419 36.4995 21.0419" stroke="black" stroke-miterlimit="10"/>
<path d="M36.4995 21.0419C30.1997 21.0419 25.0818 28.4034 25.0818 37.4975" stroke="black" stroke-miterlimit="10"/>
<path d="M39.5959 29.7505C42.5205 29.7505 44.8842 26.3352 44.8842 22.1187" stroke="black" stroke-miterlimit="10"/>
<path d="M44.8842 37.3824C44.8842 33.1658 42.5205 29.7505 39.5959 29.7505" stroke="black" stroke-miterlimit="10"/>
<path d="M44.8843 22.1187C44.8843 26.3352 47.258 29.7505 50.1825 29.7505" stroke="black" stroke-miterlimit="10"/>
<path d="M50.1825 29.7505C47.258 29.7505 44.8843 33.1658 44.8843 37.3824" stroke="black" stroke-miterlimit="10"/>
<path d="M0.697754 12.2081C3.6223 12.2081 5.98598 8.79282 5.98598 4.57626" stroke="black" stroke-miterlimit="10"/>
<path d="M5.98598 19.84C5.98598 15.6234 3.6223 12.2081 0.697754 12.2081" stroke="black" stroke-miterlimit="10"/>
<path d="M5.98608 4.57626C5.98608 8.79282 8.35978 12.2081 11.2843 12.2081" stroke="black" stroke-miterlimit="10"/>
<path d="M11.2843 12.2081C8.35978 12.2081 5.98608 15.6234 5.98608 19.84" stroke="black" stroke-miterlimit="10"/>
</svg>
