<svg width="48" height="42" viewBox="0 0 48 42" fill="none" xmlns="http://www.w3.org/2000/svg">
<path d="M1.38086 0.963379H38.7527V33.8674C38.7527 35.0817 38.2717 36.2463 37.4156 37.1049C36.5595 37.9636 35.3984 38.4459 34.1877 38.4459H5.94582C4.73512 38.4459 3.574 37.9636 2.71791 37.1049C1.86181 36.2463 1.38086 35.0817 1.38086 33.8674V0.963379Z" stroke="black" stroke-miterlimit="10"/>
<path d="M38.7527 7.21045C40.988 7.30418 43.0994 8.22271 44.6466 9.77453C46.1939 11.3263 47.0575 13.3917 47.0575 15.5399C47.0575 17.6881 46.1939 19.7535 44.6466 21.3053C43.0994 22.8571 40.988 23.7756 38.7527 23.8694" stroke="black" stroke-miterlimit="10"/>
<path d="M5.73608 41H33.5496" stroke="black" stroke-miterlimit="10"/>
</svg>
