<svg width="72" height="35" viewBox="0 0 72 35" fill="none" xmlns="http://www.w3.org/2000/svg">
<path d="M71.0665 18.1478C71.0681 15.7071 70.5051 13.2991 69.4215 11.112C68.338 8.92502 66.7633 7.01825 64.8205 5.54082C61.4796 2.6155 57.1906 1.00202 52.75 1H19.3165C14.8759 1.00202 10.5869 2.6155 7.24602 5.54082C5.30326 7.01825 3.72855 8.92502 2.64501 11.112C1.56147 13.2991 0.998459 15.7071 1 18.1478C1 18.3202 1.01916 18.4927 1.01916 18.6651C1.01916 18.8375 1 19.1058 1 19.3165C0.999194 20.0191 1.10911 20.7174 1.32572 21.3858C1.98441 24.5484 3.59406 27.4341 5.93895 29.6562C8.28384 31.8783 11.2519 33.3305 14.4454 33.8183C17.6388 34.3061 20.9051 33.8061 23.8064 32.3853C26.7077 30.9646 29.1054 28.6909 30.6782 25.8691H41.3884C42.9611 28.6909 45.3588 30.9646 48.2601 32.3853C51.1614 33.8061 54.4277 34.3061 57.6212 33.8183C60.8146 33.3305 63.7827 31.8783 66.1276 29.6562C68.4725 27.4341 70.0821 24.5484 70.7408 21.3858C70.9574 20.7174 71.0673 20.0191 71.0665 19.3165C71.0665 19.1058 71.0665 18.8759 71.0474 18.6651C71.0282 18.4544 71.0665 18.3202 71.0665 18.1478Z" stroke="black" stroke-miterlimit="10"/>
<path d="M16.8259 11.1737V21.6157" stroke="black" stroke-miterlimit="10"/>
<path d="M22.0372 16.3851H11.5952" stroke="black" stroke-miterlimit="10"/>
<path d="M56.9076 13.7411C58.1139 13.7411 59.0918 12.7632 59.0918 11.5569C59.0918 10.3506 58.1139 9.37274 56.9076 9.37274C55.7013 9.37274 54.7234 10.3506 54.7234 11.5569C54.7234 12.7632 55.7013 13.7411 56.9076 13.7411Z" stroke="black" stroke-miterlimit="10"/>
<path d="M56.9076 23.3976C58.1139 23.3976 59.0918 22.4197 59.0918 21.2134C59.0918 20.0071 58.1139 19.0292 56.9076 19.0292C55.7013 19.0292 54.7234 20.0071 54.7234 21.2134C54.7234 22.4197 55.7013 23.3976 56.9076 23.3976Z" stroke="black" stroke-miterlimit="10"/>
<path d="M61.0653 18.5693C62.2716 18.5693 63.2495 17.5914 63.2495 16.3851C63.2495 15.1788 62.2716 14.2009 61.0653 14.2009C59.859 14.2009 58.8811 15.1788 58.8811 16.3851C58.8811 17.5914 59.859 18.5693 61.0653 18.5693Z" stroke="black" stroke-miterlimit="10"/>
<path d="M52.7311 18.5693C53.9374 18.5693 54.9153 17.5914 54.9153 16.3851C54.9153 15.1788 53.9374 14.2009 52.7311 14.2009C51.5248 14.2009 50.5469 15.1788 50.5469 16.3851C50.5469 17.5914 51.5248 18.5693 52.7311 18.5693Z" stroke="black" stroke-miterlimit="10"/>
</svg>
