<svg width="26" height="16" viewBox="0 0 26 16" fill="none" xmlns="http://www.w3.org/2000/svg">
<path d="M23.3435 4.73434L17.3997 10.8855C16.6249 11.6919 15.6841 12.095 14.5773 12.095C13.4704 12.095 12.5296 11.6919 11.7548 10.8855L10.1941 9.26134C9.95062 9.00792 9.6407 8.88121 9.26437 8.88121C8.88803 8.88121 8.57812 9.00792 8.33461 9.26134L2.22478 15.6199C1.98127 15.8733 1.67135 16 1.29502 16C0.918689 16 0.60877 15.8733 0.365262 15.6199C0.121754 15.3664 0 15.0439 0 14.6523C0 14.2606 0.121754 13.9381 0.365262 13.6847L6.47509 7.32613C7.24989 6.5198 8.19072 6.11663 9.29757 6.11663C10.4044 6.11663 11.3453 6.5198 12.12 7.32613L13.6475 8.91577C13.9132 9.19222 14.2288 9.33045 14.5945 9.33045C14.9602 9.33045 15.2755 9.19222 15.5402 8.91577L21.4508 2.76458H19.3589C18.9825 2.76458 18.6673 2.63188 18.4132 2.36648C18.159 2.10108 18.0315 1.77302 18.0306 1.38229C18.0298 0.991562 18.1573 0.663499 18.4132 0.398099C18.6691 0.1327 18.9843 0 19.3589 0H24.6718C25.0481 0 25.3638 0.1327 25.6188 0.398099C25.8738 0.663499 26.0009 0.991562 26 1.38229V6.91145C26 7.30309 25.8725 7.63162 25.6175 7.89702C25.3624 8.16242 25.0472 8.29466 24.6718 8.29374C24.2963 8.29281 23.9811 8.16011 23.7261 7.89564C23.4711 7.63116 23.3435 7.30309 23.3435 6.91145V4.73434Z" fill="black"/>
</svg>
