<svg width="52" height="48" viewBox="0 0 52 48" fill="none" xmlns="http://www.w3.org/2000/svg">
<path d="M15.1601 39.2791C13.9124 39.2675 12.696 38.887 11.6641 38.1854C10.6323 37.4839 9.8311 36.4926 9.36158 35.3366C8.89206 34.1805 8.77517 32.9113 9.02564 31.689C9.2761 30.4666 9.88272 29.3457 10.7691 28.4674C11.6554 27.5892 12.7819 26.9929 14.0065 26.7537C15.2311 26.5145 16.4991 26.643 17.6508 27.1231C18.8025 27.6033 19.7864 28.4135 20.4784 29.4517C21.1705 30.49 21.5398 31.7098 21.5399 32.9576C21.4621 36.4004 18.6417 39.2791 15.1601 39.2791Z" stroke="black" stroke-miterlimit="10"/>
<path d="M17.4748 47.3121H13.4291C13.2659 47.3174 13.1032 47.2895 12.9511 47.23C12.7989 47.1706 12.6605 47.0808 12.5441 46.9663C12.4276 46.8517 12.3357 46.7146 12.2739 46.5634C12.212 46.4123 12.1816 46.2501 12.1843 46.0868V42.8774C11.6045 42.7368 11.0478 42.5141 10.531 42.2161L8.29415 44.4335C7.78843 44.9392 7.04931 44.9392 6.6214 44.4335L3.82051 41.652C3.31479 41.1658 3.31479 40.4266 3.82051 40.0182L6.05733 37.8008C5.80447 37.3145 5.55161 36.731 5.29875 36.1669H2.24501C2.08081 36.1696 1.91775 36.1392 1.76554 36.0775C1.61332 36.0159 1.47504 35.9243 1.35892 35.8082C1.2428 35.6921 1.1512 35.5538 1.08957 35.4016C1.02794 35.2494 0.99754 35.0863 1.00017 34.9221V30.9153C0.997447 30.752 1.02793 30.5898 1.08978 30.4386C1.15163 30.2874 1.24354 30.1504 1.35995 30.0358C1.47636 29.9212 1.61483 29.8314 1.76697 29.772C1.91911 29.7125 2.08175 29.6846 2.24501 29.6899H5.29875C5.47135 29.1054 5.7268 28.5486 6.05733 28.0366L3.82051 25.8192C3.31479 25.3329 3.31479 24.5938 3.82051 24.1854L6.6214 21.4039C6.72845 21.2914 6.85872 21.2035 7.00315 21.1464C7.14758 21.0893 7.30272 21.0644 7.45777 21.0733C7.78843 21.0733 8.11909 21.1511 8.29415 21.4039L10.531 23.6213C11.057 23.3428 11.6113 23.1211 12.1843 22.96V19.7506C12.1816 19.5873 12.212 19.4251 12.2739 19.2739C12.3357 19.1228 12.4276 18.9857 12.5441 18.8711C12.6605 18.7565 12.7989 18.6668 12.9511 18.6073C13.1032 18.5479 13.2659 18.5199 13.4291 18.5252H17.4748C17.6374 18.5226 17.7988 18.5524 17.9498 18.6129C18.1007 18.6733 18.2381 18.7631 18.3539 18.8772C18.4698 18.9912 18.5618 19.1272 18.6246 19.2771C18.6874 19.4271 18.7197 19.588 18.7197 19.7506V23.1156C19.209 23.2847 19.6786 23.5065 20.1201 23.7769L22.6098 21.3261C22.7169 21.2136 22.8471 21.1257 22.9916 21.0686C23.136 21.0115 23.2911 20.9866 23.4462 20.9955C23.7768 20.9955 24.1075 21.0733 24.2631 21.3261L27.0834 24.1076C27.5892 24.5938 27.5892 25.3329 27.0834 25.7414L24.516 28.2894C24.7512 28.6949 24.9218 29.1346 25.0217 29.5926H28.6589C28.8231 29.59 28.9862 29.6204 29.1384 29.682C29.2906 29.7437 29.4289 29.8353 29.545 29.9514C29.6612 30.0675 29.7528 30.2058 29.8144 30.358C29.876 30.5102 29.9064 30.6733 29.9038 30.8375V34.8443C29.9065 35.0076 29.876 35.1698 29.8142 35.321C29.7523 35.4722 29.6604 35.6092 29.544 35.7238C29.4276 35.8384 29.2891 35.9281 29.137 35.9876C28.9848 36.0471 28.8222 36.075 28.6589 36.0697H25.0217C24.8466 36.5754 24.691 36.9839 24.516 37.3923L27.0834 39.9209C27.5892 40.4266 27.5892 41.1658 27.0834 41.5742L24.2631 44.3557C24.1607 44.4688 24.034 44.5574 23.8926 44.6146C23.7511 44.6719 23.5985 44.6964 23.4462 44.6863C23.1155 44.6863 22.7849 44.6085 22.6098 44.3557L20.1201 41.9049C19.6704 42.1543 19.2022 42.3689 18.7197 42.5467V45.9117C18.6419 46.8259 18.1362 47.3121 17.4748 47.3121Z" stroke="black" stroke-miterlimit="10"/>
<path d="M32.7242 15.3743C31.8603 15.3666 31.0181 15.1034 30.3035 14.6179C29.589 14.1323 29.0341 13.4462 28.7088 12.6459C28.3835 11.8455 28.3024 10.9668 28.4756 10.1205C28.6488 9.27412 29.0687 8.49796 29.6823 7.8898C30.2958 7.28163 31.0757 6.86867 31.9235 6.70293C32.7714 6.5372 33.6493 6.62611 34.4467 6.95846C35.2442 7.29081 35.9254 7.85174 36.4046 8.57056C36.8837 9.28939 37.1395 10.134 37.1395 10.9979C37.0811 13.3708 35.1361 15.3743 32.7242 15.3743Z" stroke="black" stroke-miterlimit="10"/>
<path d="M42.9475 34.2147C42.2736 34.2225 41.6125 34.0306 41.0475 33.6633C40.4825 33.296 40.0388 32.7697 39.7724 32.1507C39.506 31.5317 39.4287 30.8477 39.5503 30.1849C39.672 29.522 39.987 28.91 40.4559 28.4259C40.9247 27.9419 41.5264 27.6074 42.185 27.4646C42.8436 27.3219 43.5297 27.3772 44.1569 27.6237C44.7841 27.8702 45.3244 28.2969 45.7095 28.8499C46.0947 29.4029 46.3076 30.0575 46.3213 30.7312C46.3136 32.5829 44.8285 34.1763 42.9475 34.2147Z" stroke="black" stroke-width="0.8" stroke-miterlimit="10"/>
<path d="M34.3384 20.9371H31.5181C31.2911 20.9371 31.0734 20.847 30.9129 20.6865C30.7524 20.526 30.6622 20.3083 30.6622 20.0813V17.8639C30.2644 17.7574 29.8796 17.6074 29.5146 17.4166L27.9586 18.9337C27.8874 19.0161 27.7993 19.0821 27.7003 19.1274C27.6013 19.1727 27.4937 19.1961 27.3848 19.1961C27.2759 19.1961 27.1683 19.1727 27.0693 19.1274C26.9703 19.0821 26.8822 19.0161 26.811 18.9337L24.8659 17.0081C24.7868 16.937 24.7236 16.85 24.6803 16.7528C24.637 16.6556 24.6146 16.5504 24.6146 16.444C24.6146 16.3376 24.637 16.2324 24.6803 16.1353C24.7236 16.0381 24.7868 15.9511 24.8659 15.88L26.422 14.3434C26.2469 13.9932 26.0719 13.6042 25.8968 13.2152H23.7767C23.5497 13.2152 23.3321 13.1251 23.1716 12.9646C23.0111 12.8041 22.9209 12.5864 22.9209 12.3594V9.57795C22.9182 9.46484 22.9385 9.35236 22.9806 9.24732C23.0227 9.14228 23.0856 9.04687 23.1656 8.96686C23.2456 8.88686 23.341 8.82392 23.4461 8.78185C23.5511 8.73978 23.6636 8.71947 23.7767 8.72213H25.8968C26.0118 8.32092 26.189 7.94024 26.422 7.59399L24.8659 6.05739C24.7863 5.9845 24.7228 5.89585 24.6793 5.79706C24.6358 5.69828 24.6134 5.59153 24.6134 5.4836C24.6134 5.37567 24.6358 5.26892 24.6793 5.17014C24.7228 5.07135 24.7863 4.9827 24.8659 4.90981L26.811 2.98419C26.8859 2.90585 26.9768 2.84448 27.0775 2.80422C27.1781 2.76396 27.2862 2.74574 27.3945 2.75079C27.5007 2.73797 27.6083 2.75271 27.7071 2.79359C27.8059 2.83447 27.8925 2.90012 27.9586 2.98419L29.5146 4.52079C29.8789 4.32845 30.2639 4.17835 30.6622 4.07343V1.85606C30.6596 1.74294 30.6799 1.63046 30.722 1.52542C30.764 1.42039 30.827 1.32498 30.907 1.24497C30.987 1.16496 31.0824 1.10202 31.1874 1.05995C31.2925 1.01789 31.4049 0.997569 31.5181 1.00023H34.3384C34.4508 1.00023 34.5621 1.02237 34.6659 1.06538C34.7697 1.10839 34.8641 1.17143 34.9436 1.2509C35.023 1.33037 35.0861 1.42471 35.1291 1.52855C35.1721 1.63238 35.1942 1.74367 35.1942 1.85606V4.17068C35.5343 4.29075 35.8604 4.44727 36.1668 4.6375L37.8784 2.92584C37.9543 2.84995 38.0458 2.7915 38.1466 2.75455C38.2474 2.7176 38.355 2.70304 38.4619 2.71189C38.5664 2.69681 38.6729 2.70853 38.7716 2.74596C38.8703 2.78338 38.9578 2.84529 39.026 2.92584L40.9905 4.8709C41.0696 4.94204 41.1329 5.02902 41.1762 5.1262C41.2195 5.22338 41.2419 5.32858 41.2419 5.43497C41.2419 5.54136 41.2195 5.64656 41.1762 5.74374C41.1329 5.84092 41.0696 5.9279 40.9905 5.99904L39.2011 7.7496C39.3677 8.03275 39.4861 8.34171 39.5512 8.66378H42.0797C42.3067 8.66378 42.5244 8.75394 42.6849 8.91444C42.8454 9.07494 42.9356 9.29262 42.9356 9.5196V12.301C42.9356 12.528 42.8454 12.7457 42.6849 12.9062C42.5244 13.0667 42.3067 13.1569 42.0797 13.1569H39.5512C39.4345 13.4875 39.3178 13.7793 39.2011 14.0516L40.9905 15.8216C41.0696 15.8927 41.1329 15.9797 41.1762 16.0769C41.2195 16.1741 41.2419 16.2793 41.2419 16.3857C41.2419 16.4921 41.2195 16.5973 41.1762 16.6944C41.1329 16.7916 41.0696 16.8786 40.9905 16.9497L39.026 18.8754C38.9566 18.9555 38.8695 19.0183 38.7716 19.0588C38.6737 19.0993 38.5676 19.1164 38.4619 19.1088C38.3531 19.1196 38.2432 19.104 38.1416 19.0634C38.0401 19.0228 37.9498 18.9583 37.8784 18.8754L36.1668 17.1831C35.8541 17.3561 35.529 17.5057 35.1942 17.6305V19.9646C35.1359 20.587 34.7858 20.9371 34.3384 20.9371Z" stroke="black" stroke-miterlimit="10"/>
<path d="M44.295 38.5276L42.0954 38.5725C41.9183 38.5761 41.7471 38.5092 41.6194 38.3866C41.4917 38.264 41.4179 38.0956 41.4143 37.9186L41.379 36.1893C41.067 36.1125 40.7645 36.0017 40.4768 35.8586L39.2874 37.0666C39.2332 37.132 39.1655 37.1849 39.089 37.2218C39.0125 37.2587 38.929 37.2787 38.8441 37.2804C38.7592 37.2821 38.6749 37.2656 38.5969 37.2318C38.519 37.1981 38.4492 37.148 38.3924 37.0849L36.8448 35.6141C36.7819 35.5598 36.7312 35.493 36.6959 35.4179C36.6606 35.3428 36.6414 35.2611 36.6397 35.1781C36.638 35.0952 36.6538 35.0128 36.686 34.9363C36.7183 34.8598 36.7662 34.791 36.8268 34.7342L38.0159 33.511C37.8738 33.2408 37.7311 32.9402 37.5884 32.6396L35.9349 32.6733C35.7578 32.6769 35.5866 32.6101 35.4589 32.4874C35.3312 32.3648 35.2574 32.1965 35.2538 32.0195L35.2095 29.8502C35.2056 29.762 35.2197 29.674 35.2508 29.5914C35.2819 29.5088 35.3295 29.4334 35.3906 29.3697C35.4518 29.306 35.5252 29.2554 35.6064 29.2209C35.6877 29.1865 35.7751 29.1688 35.8633 29.1691L37.5168 29.1353C37.6001 28.8206 37.7322 28.5209 37.9085 28.2471L36.6704 27.0735C36.6072 27.0179 36.5562 26.9498 36.5207 26.8734C36.4852 26.7971 36.466 26.7142 36.4643 26.63C36.4626 26.5458 36.4784 26.4622 36.5107 26.3845C36.5431 26.3068 36.5912 26.2366 36.6522 26.1785L38.1385 24.6457C38.1957 24.5834 38.2656 24.5341 38.3434 24.5011C38.4213 24.4681 38.5053 24.4522 38.5898 24.4544C38.6724 24.4427 38.7566 24.4525 38.8343 24.4828C38.912 24.5131 38.9806 24.5629 39.0335 24.6274L40.2715 25.8011C40.5525 25.6453 40.8504 25.5221 41.1594 25.4339L41.1241 23.7046C41.1202 23.6164 41.1343 23.5283 41.1654 23.4457C41.1966 23.3632 41.2441 23.2877 41.3053 23.2241C41.3664 23.1604 41.4398 23.1098 41.5211 23.0753C41.6023 23.0408 41.6897 23.0232 41.778 23.0235L43.9776 22.9786C44.0652 22.9768 44.1524 22.9923 44.234 23.0242C44.3157 23.0561 44.3903 23.1037 44.4535 23.1644C44.5168 23.2251 44.5675 23.2977 44.6026 23.378C44.6378 23.4583 44.6569 23.5448 44.6587 23.6324L44.6955 25.4376C44.9627 25.5258 45.2195 25.6427 45.4614 25.7862L46.7691 24.424C46.8271 24.3636 46.8976 24.3166 46.9756 24.2862C47.0536 24.2557 47.1372 24.2427 47.2208 24.2479C47.302 24.2344 47.3853 24.2419 47.4629 24.2695C47.5404 24.2971 47.6097 24.344 47.6641 24.4057L49.2273 25.8914C49.2901 25.9457 49.3408 26.0125 49.3761 26.0876C49.4114 26.1627 49.4306 26.2444 49.4323 26.3274C49.434 26.4103 49.4182 26.4927 49.386 26.5692C49.3537 26.6457 49.3058 26.7146 49.2452 26.7713L47.8775 28.1651C48.012 28.3832 48.1092 28.6223 48.1651 28.8725L50.1371 28.8322C50.3142 28.8286 50.4854 28.8955 50.6131 29.0181C50.7408 29.1407 50.8146 29.309 50.8182 29.4861L50.8625 31.6553C50.8661 31.8323 50.7993 32.0036 50.6766 32.1313C50.554 32.259 50.3857 32.3328 50.2087 32.3364L48.2366 32.3767C48.1508 32.6364 48.0645 32.8658 47.9778 33.0801L49.4016 34.432C49.4644 34.4862 49.5151 34.5531 49.5505 34.6282C49.5858 34.7033 49.6049 34.785 49.6066 34.8679C49.6083 34.9509 49.5925 35.0333 49.5603 35.1098C49.5281 35.1863 49.4801 35.2551 49.4195 35.3119L47.9181 36.8449C47.8652 36.9085 47.7983 36.9589 47.7226 36.9921C47.6468 37.0252 47.5644 37.0403 47.4818 37.036C47.3971 37.0461 47.3112 37.0358 47.2313 37.0057C47.1514 36.9756 47.08 36.9267 47.023 36.8632L45.6612 35.5707C45.4201 35.7106 45.1689 35.8324 44.9098 35.9351L44.947 37.7554C44.9114 38.2418 44.6439 38.5204 44.295 38.5276Z" stroke="black" stroke-width="0.8" stroke-miterlimit="10"/>
</svg>
