<svg width="45" height="45" viewBox="0 0 45 45" fill="none" xmlns="http://www.w3.org/2000/svg">
<path d="M40.3982 44H4.82255C4.23015 43.9993 3.646 43.8611 3.1161 43.5963C2.58619 43.3314 2.125 42.9472 1.76885 42.4738C1.4127 42.0004 1.17131 41.4508 1.06368 40.8683C0.956062 40.2857 0.985147 39.6862 1.14865 39.1168L9.18532 9.4806C9.27246 9.15693 9.46343 8.87081 9.72891 8.66617C9.99438 8.46154 10.3197 8.34969 10.6549 8.34781H34.5812C34.9157 8.3522 35.2398 8.46499 35.5048 8.66925C35.7698 8.8735 35.9613 9.1582 36.0507 9.4806L44.118 39.2392C44.2602 39.8044 44.2715 40.3946 44.1509 40.9648C44.0303 41.5349 43.7811 42.07 43.4223 42.5293C43.0635 42.9885 42.6045 43.3597 42.0805 43.6146C41.5564 43.8695 40.981 44.0013 40.3982 44Z" stroke="black" stroke-miterlimit="10"/>
<path d="M17.2373 8.07227V4.6739C17.2413 3.70077 17.6297 2.76863 18.3178 2.08051C19.0059 1.39239 19.9381 1.00403 20.9112 1H24.3096C25.284 1 26.2184 1.38707 26.9074 2.07606C27.5964 2.76505 27.9835 3.69952 27.9835 4.6739V8.07227" stroke="black" stroke-miterlimit="10"/>
</svg>
