<svg width="54" height="43" viewBox="0 0 54 43" fill="none" xmlns="http://www.w3.org/2000/svg">
<path d="M49.1943 5.66077H4.51006C2.46715 5.66077 0.811035 7.31688 0.811035 9.35979V38.295C0.811035 40.338 2.46715 41.9941 4.51006 41.9941H49.1943C51.2372 41.9941 52.8933 40.338 52.8933 38.295V9.35979C52.8933 7.31688 51.2372 5.66077 49.1943 5.66077Z" stroke="black" stroke-miterlimit="10"/>
<path d="M10.4136 5.66077V42" stroke="black" stroke-miterlimit="10"/>
<path d="M43.2314 5.66077V42" stroke="black" stroke-miterlimit="10"/>
<path d="M18.3 5.88271V3.21942C18.3 2.63079 18.5339 2.06627 18.9501 1.65005C19.3663 1.23383 19.9308 1 20.5195 1H33.1849C33.7736 1 34.3381 1.23383 34.7543 1.65005C35.1705 2.06627 35.4043 2.63079 35.4043 3.21942V5.88271" stroke="black" stroke-miterlimit="10"/>
</svg>
